<?xml version="1.0" standalone="no"?>
<!DOCTYPE svg PUBLIC "-//W3C//DTD SVG 20010904//EN"
 "http://www.w3.org/TR/2001/REC-SVG-20010904/DTD/svg10.dtd">
<svg version="1.0" xmlns="http://www.w3.org/2000/svg"
 width="300.000000pt" height="300.000000pt" viewBox="0 0 300.000000 300.000000"
 preserveAspectRatio="xMidYMid meet">
<metadata>
Created by potrace 1.11, written by Peter Selinger 2001-2013
</metadata>
<g transform="translate(0.000000,300.000000) scale(0.100000,-0.100000)"
fill="#000000" stroke="none">
<path d="M0 1500 l0 -1500 237 0 236 0 -22 24 c-43 45 -34 138 17 165 9 5 303
86 652 179 349 94 673 185 720 202 208 77 412 210 513 335 110 136 165 308
153 475 -10 155 -52 228 -159 279 -34 16 -100 37 -147 47 -97 19 -123 33 -140
74 -22 53 -6 93 61 151 118 102 205 242 235 378 22 100 15 236 -16 309 -32 74
-103 136 -188 163 -78 24 -230 29 -327 10 -33 -7 -315 -80 -627 -164 l-568
-151 0 -984 0 -984 -29 -29 c-51 -50 -137 -36 -170 28 -8 16 -11 312 -11 1048
0 1105 -2 1067 50 1095 15 8 987 272 1245 338 28 7 -217 10 -837 11 l-878 1 0
-1500z m1858 985 c68 -21 129 -69 160 -129 56 -108 35 -285 -46 -391 -51 -67
-164 -147 -264 -185 -89 -34 -619 -180 -655 -180 -12 0 -34 5 -48 12 -52 24
-55 42 -55 362 l0 294 28 29 c25 24 68 39 308 103 153 41 304 80 334 86 78 17
178 17 238 -1z m130 -940 c219 -65 270 -362 98 -562 -44 -51 -149 -122 -231
-156 -80 -33 -764 -217 -809 -217 -25 0 -43 8 -65 31 l-31 31 0 304 c0 327 3
347 52 372 25 13 616 172 727 196 88 19 196 19 259 1z"/>
<path d="M1660 2275 c-36 -8 -162 -40 -280 -72 l-215 -58 -3 -148 c-1 -89 1
-147 7 -147 5 0 103 25 218 56 312 83 416 143 443 252 16 71 7 108 -32 121
-38 13 -55 13 -138 -4z"/>
<path d="M1795 1339 c-27 -5 -180 -44 -340 -87 l-290 -77 -3 -161 -2 -161 287
78 c159 42 310 87 336 98 124 54 187 128 187 222 0 63 -6 74 -43 88 -32 12
-61 12 -132 0z"/>
<path d="M2245 2976 c164 -61 275 -185 321 -356 24 -94 22 -280 -5 -383 -24
-92 -87 -224 -142 -296 -21 -28 -39 -53 -39 -55 0 -2 29 -18 65 -35 140 -69
228 -184 261 -341 22 -105 14 -316 -16 -420 -77 -270 -292 -496 -620 -654
-154 -74 -215 -93 -895 -276 l-590 -159 1208 0 1207 -1 0 1500 0 1500 -407 -1
-408 0 60 -23z"/>
</g>
</svg>
